PathFileType	4	(X/Y/Z)	SUBJ62_3_walk_RCNL2025.trc
DataRate	CameraRate	NumFrames	NumMarkers	Units	OrigDataRate	OrigDataStartFrame	OrigNumFrames
100	100	12	25	mm	100	119	316
Frame#	Time	R_Shoulder			L_Shoulder			C7			J_Notch			R_Elbow			L_Elbow			R_Wrist			L_Wrist			R_Asis			L_Asis			Sacral			Thoracic			Sternum			R_Thigh_Lateral			R_Knee_Lateral			R_Shank_Lateral			R_Ankle_Lateral			R_Heel			R_Toe			L_Thigh_Lateral			L_Knee_Lateral			L_Shank_Lateral			L_Ankle_Lateral			L_Heel			L_Toe		
		X1	Y1	Z1	X2	Y2	Z2	X3	Y3	Z3	X4	Y4	Z4	X5	Y5	Z5	X6	Y6	Z6	X7	Y7	Z7	X8	Y8	Z8	X9	Y9	Z9	X10	Y10	Z10	X11	Y11	Z11	X12	Y12	Z12	X13	Y13	Z13	X14	Y14	Z14	X15	Y15	Z15	X16	Y16	Z16	X17	Y17	Z17	X18	Y18	Z18	X19	Y19	Z19	X20	Y20	Z20	X21	Y21	Z21	X22	Y22	Z22	X23	Y23	Z23	X24	Y24	Z24	X25	Y25	Z25
119	1.18000000	-731.663879	1272.241333	254.230621	-734.148315	1297.575684	-85.355087	-802.806519	1350.956665	83.198479	-671.955872	1263.493652	80.028053	-810.836426	980.612854	308.223145	-710.459961	1001.331055	-168.684509	-749.015198	767.463654	317.624985	-595.209076	813.792175	-156.237274	-677.773071	871.291138	215.481491	-663.659119	869.778870	-44.139469	-846.514160	869.520142	75.596565	-864.677246	1154.546875	70.994972	-651.867737	1062.919800	79.878395	-609.783813	498.451324	284.558014	-577.827576	447.556000	216.104401	-623.631104	283.885101	255.791000	-697.645386	107.403381	188.631607	-750.859924	101.221817	144.969345	-602.849854	64.968269	181.193985	-756.833801	471.231995	-79.050545	-773.868225	409.986359	-25.064730	-779.962402	212.130569	-47.046719	-806.408081	50.395027	28.022955	-867.503906	53.942417	69.261185	-700.302368	36.222141	42.588249
120	1.19000000	-721.246704	1271.082397	254.108200	-723.364685	1296.915161	-85.472137	-792.127686	1350.061035	82.937515	-661.407349	1262.404419	79.750648	-804.522217	980.471191	307.399872	-694.850281	1001.532654	-169.618546	-747.200745	766.151520	317.831314	-574.443634	817.514771	-155.785934	-666.965820	870.859314	215.164520	-654.193726	868.293091	-44.448215	-836.493408	868.600891	76.273270	-854.271301	1153.747559	70.788132	-641.634827	1061.820557	79.427704	-594.538147	499.523224	284.574097	-564.122742	447.963135	215.382156	-600.691406	281.102692	255.066360	-663.111572	100.340553	187.869766	-715.965942	90.891823	144.299438	-565.722046	64.443573	179.808380	-753.321960	471.108887	-78.925873	-771.110718	410.052948	-24.894089	-778.893738	212.239838	-46.947506	-806.229065	50.595673	28.226578	-867.237427	54.565823	69.499512	-700.194641	36.212822	42.552517
121	1.20000000	-710.755005	1269.805298	254.014023	-712.585327	1296.067383	-85.566689	-781.430115	1349.021729	82.710136	-650.850281	1261.149780	79.506111	-798.012024	980.257874	306.731110	-679.444153	1001.592041	-170.427536	-745.016785	764.892761	318.036636	-553.993500	821.236328	-155.164536	-656.089478	870.235168	214.906464	-644.711365	866.728149	-44.696030	-826.406189	867.530701	77.001053	-843.857117	1152.804077	70.674820	-631.395508	1060.569946	79.028252	-580.205811	500.074097	284.530884	-551.225403	447.912567	214.661407	-578.157166	278.522400	254.389221	-628.388855	94.045410	187.102768	-680.668762	81.368820	143.648026	-528.812195	64.799767	178.270142	-749.661011	470.985107	-78.785271	-768.186951	410.143524	-24.701870	-777.858337	212.408142	-46.833683	-806.054504	50.844563	28.443682	-866.954224	55.279408	69.756927	-700.129272	36.206467	42.524509
122	1.21000000	-700.188110	1268.426147	253.948730	-701.816406	1295.047729	-85.633850	-770.717285	1347.851685	82.523094	-640.286804	1259.744873	79.299232	-791.299683	979.981567	306.214539	-664.240051	1001.516235	-171.109222	-742.430908	763.688141	318.235229	-533.872742	824.934448	-154.381584	-645.121094	869.429932	214.698700	-635.217346	865.112610	-44.902576	-816.245178	866.318054	77.795837	-833.432373	1151.727295	70.659225	-621.147400	1059.185181	78.683327	-566.864014	500.019257	284.424225	-539.085754	447.414886	213.953583	-556.075989	276.203339	253.760864	-593.723572	88.658440	186.339905	-645.230103	72.823570	143.026062	-492.378204	66.076836	176.622086	-745.810120	470.861725	-78.625443	-765.056030	410.258820	-24.485180	-776.820496	212.638550	-46.698162	-805.880493	51.151962	28.676615	-866.649048	56.097244	70.038452	-700.105713	36.202583	42.509293
123	1.22000000	-689.545532	1266.961670	253.914246	-691.064941	1293.874268	-85.668655	-759.992493	1346.566528	82.383827	-629.717834	1258.208984	79.133598	-784.379700	979.650452	305.845306	-649.238892	1001.314209	-171.660309	-739.414246	762.538269	318.420502	-514.096970	828.587128	-153.446655	-634.041260	868.455017	214.533783	-625.716003	863.471191	-45.086777	-806.003479	864.976135	78.673973	-822.994080	1150.530518	70.745155	-610.886169	1057.686401	78.394920	-554.548645	499.295074	284.258331	-527.623779	446.500549	213.271881	-534.501160	274.190735	253.178452	-559.403870	84.276405	185.587814	-609.968689	65.386330	142.443542	-456.705841	68.254227	174.917419	-741.727173	470.738678	-78.443382	-761.673462	410.397552	-24.240459	-775.728821	212.932022	-46.533760	-805.700439	51.529900	28.925549	-866.315979	57.033848	70.346008	-700.117188	36.200676	42.509083
124	1.23000000	-678.827393	1265.428833	253.914764	-680.337219	1292.567993	-85.665894	-749.257874	1345.185059	82.300438	-619.142822	1256.565918	79.012459	-777.246338	979.271729	305.616791	-634.444641	1000.996338	-172.076187	-735.942230	761.442383	318.585815	-494.685928	832.173004	-152.370186	-622.836121	867.321655	214.406143	-616.209229	861.824951	-45.265099	-795.675110	863.523743	79.649956	-812.538208	1149.230713	70.935776	-600.604797	1056.096313	78.164146	-543.247864	497.870636	284.041931	-516.733032	445.220184	212.629456	-513.495483	272.512268	252.636948	-525.750916	80.942551	184.850555	-575.250854	59.136646	141.909836	-422.096893	71.245911	173.214401	-737.370544	470.615143	-78.236908	-757.994019	410.556549	-23.964226	-774.522522	213.287888	-46.335484	-805.505127	51.992241	29.186859	-865.949341	58.103970	70.676033	-700.152283	36.199623	42.522655
125	1.24000000	-668.034241	1263.846313	253.957245	-669.637268	1291.153320	-85.619804	-738.514221	1343.728516	82.281647	-608.559143	1254.843872	78.939537	-769.892456	978.851868	305.521271	-619.864441	1000.574036	-172.350891	-731.994720	760.398956	318.725525	-475.664932	835.671204	-151.163383	-611.498840	866.042053	214.312103	-606.695007	860.191772	-45.450344	-785.254333	861.986328	80.734093	-802.058716	1147.847290	71.233292	-590.293579	1054.439819	77.991852	-532.897217	495.758820	283.784607	-506.288300	443.642242	212.037598	-493.133484	271.173553	252.131134	-493.105652	78.639572	184.129486	-541.475403	54.095715	141.432358	-388.855103	74.900711	171.568466	-732.701538	470.489899	-78.005249	-753.975525	410.731537	-23.653959	-773.138245	213.704437	-46.102463	-805.283203	52.554516	29.451790	-865.543884	59.322441	71.017601	-700.196960	36.197422	42.545456
126	1.25000000	-657.167480	1262.234497	254.051529	-658.966003	1289.657837	-85.523773	-727.760132	1342.221069	82.336746	-597.962402	1253.074951	78.919846	-762.309509	978.397339	305.550476	-605.507996	1000.059814	-172.477249	-727.555847	759.406372	318.836014	-457.065674	839.061218	-149.838093	-600.028992	864.630493	214.249557	-597.166687	858.587036	-45.650791	-774.735474	860.395447	81.930458	-791.547424	1146.402832	71.638695	-579.939514	1052.744629	77.879265	-523.379028	493.024170	283.494476	-496.155640	441.847595	211.504242	-473.502045	270.154327	251.656616	-461.812897	77.286865	183.422958	-509.052246	50.222782	141.013809	-357.271484	79.008759	170.023499	-727.686829	470.362366	-77.749367	-749.582764	410.917908	-23.309036	-771.516663	214.180130	-45.839233	-805.022400	53.233353	29.705828	-865.094971	60.704136	71.351639	-700.236206	36.191536	42.570309
127	1.26000000	-646.229187	1260.616943	254.209824	-648.320068	1288.112793	-85.370186	-716.991760	1340.688721	82.475410	-587.346069	1251.293457	78.960152	-754.487488	977.915588	305.696167	-591.386780	999.467346	-172.447601	-722.613556	758.464752	318.916550	-438.925323	842.322083	-148.406906	-588.431702	863.105225	214.217270	-587.611511	857.024597	-45.869625	-764.112122	858.787842	83.235390	-780.993530	1144.921387	72.151581	-569.526794	1051.039795	77.828697	-514.525635	489.785309	283.177490	-486.203888	439.922058	211.032974	-454.697021	269.406952	251.209930	-432.203674	76.743423	182.725983	-478.378632	47.417187	140.648758	-327.610718	83.314255	168.604813	-722.301636	470.233856	-77.471947	-744.790161	411.112030	-22.931519	-769.607849	214.714905	-45.556160	-804.709839	54.045616	29.929108	-864.598511	62.264107	71.651291	-700.255554	36.179790	42.588364
128	1.27000000	-635.221741	1259.019409	254.445938	-637.691772	1286.552002	-85.150459	-706.202820	1339.158691	82.707275	-576.702026	1249.534790	79.069130	-746.415527	977.416382	305.950409	-577.512939	998.811707	-172.254654	-717.158722	757.576813	318.969727	-421.284195	845.430969	-146.883133	-576.715515	861.489746	214.214478	-578.010681	855.517334	-46.104454	-753.376831	857.203308	84.636971	-770.383545	1143.428101	72.770088	-559.036987	1049.355957	77.843994	-506.129456	486.209534	282.838531	-476.316101	437.947571	210.622864	-436.816681	268.858307	250.787231	-404.578278	76.817551	182.030029	-449.815002	45.526741	140.320969	-300.100311	87.533630	167.315979	-716.532410	470.109283	-77.177078	-739.583679	411.312714	-22.526581	-767.374756	215.311508	-45.268929	-804.333374	55.007278	30.098045	-864.049927	64.017883	71.883934	-700.241028	36.161411	42.590141
129	1.28000000	-624.147095	1257.470459	254.773895	-627.069031	1285.011353	-84.855392	-695.384827	1337.658325	83.041443	-566.020325	1247.833008	79.257164	-738.082275	976.912109	306.305542	-563.897827	998.109070	-171.892593	-711.184692	756.748352	319.001221	-404.182404	848.362640	-145.280758	-564.890625	859.814392	214.240997	-568.338318	854.077148	-46.346962	-742.520813	855.682190	86.115486	-759.701904	1141.947876	73.490974	-548.449341	1047.724121	77.930832	-497.959381	482.498230	282.483398	-466.399384	435.993622	210.268784	-419.951965	268.415924	250.382355	-379.191193	77.283279	181.323441	-423.664154	44.362236	140.003403	-274.922119	91.377495	166.140182	-710.378296	469.998749	-76.869537	-733.960815	411.522308	-22.102383	-764.793579	215.976379	-44.997250	-803.881836	56.132397	30.188116	-863.443604	65.982056	72.014366	-700.179138	36.137966	42.566639
130	1.29000000	-613.006714	1255.999390	255.206680	-616.435913	1283.526489	-84.475571	-684.527283	1336.213745	83.485786	-555.289490	1246.220215	79.535706	-729.477295	976.417847	306.754181	-550.550781	997.376160	-171.358200	-704.686646	755.987549	319.018997	-387.656082	851.088501	-143.614376	-552.966553	858.115967	214.297775	-558.561829	852.715271	-46.582848	-731.533936	854.262390	87.644920	-748.931580	1140.504517	74.309746	-537.742188	1046.174805	78.096634	-489.784210	478.864166	282.120697	-456.391144	434.111115	209.962616	-404.176453	267.977814	249.985092	-356.238281	77.901901	180.592621	-400.155090	43.716583	139.662048	-252.206329	94.573822	165.045868	-703.851685	469.918579	-76.553871	-727.927979	411.747040	-21.669266	-761.852539	216.719727	-44.762875	-803.345154	57.432449	30.177338	-862.771301	68.175041	72.009010	-700.055847	36.113770	42.510468
